# xmcd
#
# Track frame offsets: 
#        150
#        8611
#        45486
#        68565
#        98230
#        113402
#        136232
#        158453
#        180096
#        215802
#        242188
#        267460
#        305877
#
# Disc length: 4668 seconds
#
# Revision: 0
# Processed by: cddbd v1.5.2PL0 Copyright (c) Steve Scherf et al.
# Submitted via: ExactAudioCopyFreeDBPlugin 1.0
#
DISCID=a4123a0d
DTITLE=Tony Ashton and Friends - Live At Abbey Road
DYEAR=2000
DGENRE=Blues
TTITLE0=Tony Ashton Band - Introduction
TTITLE1=Tony Ashton Band - One Rooum Country Shack
TTITLE2=Tony Ashton Band - Mercy Mercy
TTITLE3=Tony Ashton Band - No Money Down
TTITLE4=John Entwistle Band - Shake Rattle And Roll
TTITLE5=Company Of Snakes - Ain't Gonna Cry Anymore
TTITLE6=Company Of Snakes - Walking In The Shadows Of The Blues
TTITLE7=Company Of Snakes - Ready An Willing (Sweet Satisfaction)
TTITLE8=Company Of Snakes - Ain't No Love (In The Heart Of The City)
TTITLE9=Company Of Snakes - Here I Go Again
TTITLE10=Paice, Ashton, Lord - Ghost Story
TTITLE11=Paice, Ashton, Lord - Sneaky Private Lee
TTITLE12=Paice, Ashton, Lord - Resurrection Shuffle
EXTD=
EXTT0=
EXTT1=
EXTT2=
EXTT3=
EXTT4=
EXTT5=
EXTT6=
EXTT7=
EXTT8=
EXTT9=
EXTT10=
EXTT11=
EXTT12=
PLAYORDER=
